<svg width="24" height="24" viewBox="0 0 24 24" xmlns="http://www.w3.org/2000/svg" aria-labelledby="brightnessIconTitle">
	<title id="brightnessIconTitle">Brightness control</title>
	<path d="M12 3L12.7071 2.29289L12 1.58579L11.2929 2.29289L12 3ZM15 6L14.2929 6.70711L14.5858 7H15V6ZM9.00001 6V7H9.41423L9.70712 6.70711L9.00001 6ZM6.00001 6V5H5.00001V6H6.00001ZM6.00001 9L6.70712 9.70711L7.00001 9.41422V9H6.00001ZM3 12L2.29289 11.2929L1.58579 12L2.29289 12.7071L3 12ZM6.00001 15H7.00001V14.5858L6.70712 14.2929L6.00001 15ZM6.00001 18H5.00001V19H6.00001V18ZM8.99999 18L9.70709 17.2929L9.4142 17H8.99999V18ZM12 21L11.2929 21.7071L12 22.4142L12.7071 21.7071L12 21ZM15 18V17H14.5858L14.2929 17.2929L15 18ZM18 18V19H19V18H18ZM18 15L17.2929 14.2929L17 14.5858V15H18ZM21 12L21.7071 12.7071L22.4142 12L21.7071 11.2929L21 12ZM18 9H17V9.41421L17.2929 9.70711L18 9ZM18 6H19V5H18V6ZM11.2929 3.70711L14.2929 6.70711L15.7071 5.29289L12.7071 2.29289L11.2929 3.70711ZM9.70712 6.70711L12.7071 3.70711L11.2929 2.29289L8.29291 5.29289L9.70712 6.70711ZM6.00001 7H9.00001V5H6.00001V7ZM7.00001 9V6H5.00001V9H7.00001ZM3.70711 12.7071L6.70712 9.70711L5.29291 8.29289L2.29289 11.2929L3.70711 12.7071ZM6.70712 14.2929L3.70711 11.2929L2.29289 12.7071L5.29291 15.7071L6.70712 14.2929ZM7.00001 18V15H5.00001V18H7.00001ZM8.99999 17H6.00001V19H8.99999V17ZM12.7071 20.2929L9.70709 17.2929L8.29288 18.7071L11.2929 21.7071L12.7071 20.2929ZM14.2929 17.2929L11.2929 20.2929L12.7071 21.7071L15.7071 18.7071L14.2929 17.2929ZM18 17H15V19H18V17ZM17 15V18H19V15H17ZM20.2929 11.2929L17.2929 14.2929L18.7071 15.7071L21.7071 12.7071L20.2929 11.2929ZM17.2929 9.70711L20.2929 12.7071L21.7071 11.2929L18.7071 8.29289L17.2929 9.70711ZM17 6V9H19V6H17ZM15 7H18V5H15V7Z" fill="#050733"/>
	<path d="M16 12C16 9.79086 14.2091 8 12 8V16C14.2091 16 16 14.2091 16 12Z"/>
</svg>