<svg width="24" height="24" viewBox="0 0 24 24" xmlns="http://www.w3.org/2000/svg">
	<title id="cloudCrossedIconTitle">Cloud/internet services unavailable</title>
	<path d="M18.9212 11.0251L17.9343 11.1863L18.0555 11.9284L18.8021 12.018L18.9212 11.0251ZM7.71081 9.16477L7.44234 10.1281L8.21311 10.3429L8.59176 9.63798L7.71081 9.16477ZM19.9081 10.8638C19.3647 7.53798 16.4797 5 13 5V7C15.4838 7 17.5463 8.81211 17.9343 11.1863L19.9081 10.8638ZM23 14.5C23 12.1973 21.2713 10.2998 19.0403 10.0322L18.8021 12.018C20.0399 12.1664 21 13.2218 21 14.5H23ZM18.5 19C20.9853 19 23 16.9853 23 14.5H21C21 15.8807 19.8807 17 18.5 17V19ZM13 19H18.5V17H13V19ZM6.5 19H13V17H6.5V19ZM1 13.5C1 16.5376 3.46243 19 6.5 19V17C4.567 17 3 15.433 3 13.5H1ZM6.5 8C3.46243 8 1 10.4624 1 13.5H3C3 11.567 4.567 10 6.5 10V8ZM7.97928 8.20148C7.50746 8.06998 7.01109 8 6.5 8V10C6.82788 10 7.14366 10.0448 7.44234 10.1281L7.97928 8.20148ZM13 5C10.3291 5 8.00911 6.49625 6.82987 8.69155L8.59176 9.63798C9.43643 8.06554 11.0945 7 13 7V5Z" fill="#050733"/>
	<path d="M3 21L20 4"/>
</svg>
