<svg width="24" height="24" viewBox="0 0 24 24" xmlns="http://www.w3.org/2000/svg">
<path d="M21 17V18C21.5523 18 22 17.5523 22 17H21ZM21 4H22C22 3.44772 21.5523 3 21 3V4ZM13 17V16C12.8026 16 12.6096 16.0584 12.4453 16.1679L13 17ZM7 21H6C6 21.3688 6.20298 21.7077 6.52814 21.8817C6.8533 22.0557 7.24784 22.0366 7.5547 21.8321L7 21ZM7 17H8C8 16.4477 7.55228 16 7 16V17ZM3 17H2C2 17.5523 2.44772 18 3 18V17ZM3 4V3C2.44772 3 2 3.44772 2 4H3ZM22 17V4H20V17H22ZM13 18H21V16H13V18ZM7.5547 21.8321L13.5547 17.8321L12.4453 16.1679L6.4453 20.1679L7.5547 21.8321ZM6 17V21H8V17H6ZM3 18H7V16H3V18ZM2 4V17H4V4H2ZM21 3H3V5H21V3Z" fill="#050733"/>
<path d="M12 7V11"/>
<path fill-rule="evenodd" clip-rule="evenodd" d="M12 15C12.5523 15 13 14.5523 13 14C13 13.4477 12.5523 13 12 13C11.4477 13 11 13.4477 11 14C11 14.5523 11.4477 15 12 15Z" fill="#050733"/>
</svg>
