<svg width="47" height="24" viewBox="0 0 47 24" xmlns="http://www.w3.org/2000/svg">
	<title id="messageAddIconTitle">Message Add</title>
	<desc id="messageAddIconDesc"></desc>
	<path d="M44 17V18C44.5523 18 45 17.5523 45 17H44ZM44 4H45C45 3.44772 44.5523 3 44 3V4ZM36 17V16C35.8026 16 35.6096 16.0584 35.4453 16.1679L36 17ZM30 21H29C29 21.3688 29.203 21.7077 29.5281 21.8817C29.8533 22.0557 30.2478 22.0366 30.5547 21.8321L30 21ZM30 17H31C31 16.4477 30.5523 16 30 16V17ZM26 17H25C25 17.5523 25.4477 18 26 18V17ZM26 4V3C25.4477 3 25 3.44772 25 4H26ZM45 17V4H43V17H45ZM36 18H44V16H36V18ZM30.5547 21.8321L36.5547 17.8321L35.4453 16.1679L29.4453 20.1679L30.5547 21.8321ZM29 17V21H31V17H29ZM26 18H30V16H26V18ZM25 4V17H27V4H25ZM44 3H26V5H44V3Z" fill="#050733"/>
	<path d="M38 10H32"/>
	<path d="M35 7V13"/>
	<path d="M7 8H1"/>
	<path d="M4 5V11"/>
</svg>
