<svg xmlns="http://www.w3.org/2000/svg" width="24" height="24" viewBox="0 0 24 24">

    <path fill="#0E3FF2" d="M13,17 L11,17 L11,21 C11,21.5522847 10.5522847,22 10,22 C9.44771525,22 9,21.5522847 9,21 L9,17 C7.8954305,17 7,16.1045695 7,15 L7,10 C7,9.44771525 7.44771525,9 8,9 L16,9 C16.5522847,9 17,9.44771525 17,10 L17,15 C17,16.1045695 16.1045695,17 15,17 L15,21 C15,21.5522847 14.5522847,22 14,22 C13.4477153,22 13,21.5522847 13,21 L13,17 Z"/>
    <rect width="2" height="7" x="18" y="9" fill="#0E3FF2"/>
    <rect width="2" height="7" x="4" y="9" fill="#0E3FF2"/>
    <path fill="#0E3FF2" d="M15.966623,5.44759054 C16.2611318,5.78607611 16.4962802,6.18392194 16.6720684,6.64112804 C16.7161012,6.75565238 16.7386816,6.87730238 16.7386816,7 C16.7386816,7.55228491 16.2909662,8.00000028 15.7386813,8.00000028 L8.26133723,8 C8.13862885,8 8.01696825,7.97741668 7.90243449,7.93337847 C7.38691669,7.73516196 7.12969317,7.15656598 7.32790968,6.64104818 L7.32795549,6.64106579 C7.50374111,6.18388583 7.73888161,5.78606075 8.03337698,5.44759054 L7.29289322,4.70710678 C6.90236893,4.31658249 6.90236893,3.68341751 7.29289322,3.29289322 C7.68341751,2.90236893 8.31658249,2.90236893 8.70710678,3.29289322 L9.70710678,4.29289322 C9.71946099,4.30524743 9.73142438,4.31784446 9.74299694,4.33066896 C10.3851083,4.11022299 11.1374427,4 12,4 C12.8625573,4 13.6148917,4.11022299 14.2570031,4.33066896 C14.2685756,4.31784446 14.280539,4.30524743 14.2928932,4.29289322 L15.2928932,3.29289322 C15.6834175,2.90236893 16.3165825,2.90236893 16.7071068,3.29289322 C17.0976311,3.68341751 17.0976311,4.31658249 16.7071068,4.70710678 L15.966623,5.44759054 Z M9.5,7 C9.77614237,7 10,6.77614237 10,6.5 C10,6.22385763 9.77614237,6 9.5,6 C9.22385763,6 9,6.22385763 9,6.5 C9,6.77614237 9.22385763,7 9.5,7 Z M14.5,7 C14.7761424,7 15,6.77614237 15,6.5 C15,6.22385763 14.7761424,6 14.5,6 C14.2238576,6 14,6.22385763 14,6.5 C14,6.77614237 14.2238576,7 14.5,7 Z"/>

</svg>
