<svg xmlns="http://www.w3.org/2000/svg" width="24" height="24" viewBox="0 0 24 24">
  <path fill="#0E3FF2" fill-rule="evenodd" d="M16.029982,2.70395055 C16.0824552,2.250998 15.6503273,1.89552266 15.2140851,2.02806635 C14.4300898,2.26612596 13.632549,2.76990591 13.1028806,3.38970907 C12.5957459,3.97602817 12.1383626,4.83965095 12.0410753,5.73796043 C11.9951217,6.16280916 12.3816125,6.50321984 12.8007646,6.41985783 C13.6554625,6.25003227 14.461042,5.71086936 14.9993188,5.05891138 C15.5300632,4.41644794 15.9283272,3.58162524 16.029982,2.70395055 Z M19.7156334,16.2503081 C19.983316,16.4065248 20.0980732,16.7325038 19.9878733,17.0222137 C19.7836143,17.5594144 19.4026936,18.4262653 18.7973221,19.3110292 C17.9678797,20.5232913 17.1070419,21.7311859 15.7509061,21.7561248 C14.4184432,21.7807473 13.9899865,20.9659897 12.4664937,20.9659897 C10.9435705,20.9659897 10.4675146,21.7311859 9.20613412,21.7807473 C7.89715442,21.8302455 6.90035498,20.4698054 6.06401316,19.2619108 C4.3550604,16.7912433 3.04905565,12.2802638 4.80269602,9.23536684 C5.67385113,7.72320411 7.23070145,6.76564875 8.92047525,6.74108955 C10.2059085,6.71659366 11.41912,7.60585168 12.2049509,7.60585168 C12.9902122,7.60585168 14.4645866,6.5364507 16.0144743,6.69349029 C16.5854756,6.71728992 18.0642175,6.90218014 19.2078657,8.11247999 C19.4572555,8.37636473 19.4299745,8.79798532 19.1505821,9.02977854 C18.5088149,9.56204209 17.4877094,10.6854986 17.503597,12.454077 C17.524295,14.6797223 18.9573367,15.8078628 19.7156334,16.2503081 Z"/>
</svg>
