<svg xmlns="http://www.w3.org/2000/svg" width="24" height="24" viewBox="0 0 24 24">
 <path fill="none" stroke-linejoin="round" d="M10.1910142,14.5115755 L4.50702013,17.8551015 C4.030987,18.135121 3.41808527,17.9762205 3.13806578,17.5001874 C3.04766776,17.3465107 3,17.17146 3,16.9931673 L3,7.00684886 C3,6.45456411 3.44771525,6.00684886 4,6.00684886 C4.17829278,6.00684886 4.35334348,6.05451661 4.50702013,6.14491464 L10.1910142,9.48844059 L10.1910142,7.00684886 C10.1910142,6.45456411 10.6387295,6.00684886 11.1910142,6.00684886 C11.369307,6.00684886 11.5443577,6.05451661 11.6980344,6.14491464 L20.186405,11.1380738 C20.6624381,11.4180933 20.8213386,12.0309951 20.5413191,12.5070282 C20.4551111,12.6535819 20.3329587,12.7757342 20.186405,12.8619423 L11.6980344,17.8551015 C11.2220012,18.135121 10.6090995,17.9762205 10.32908,17.5001874 C10.238682,17.3465107 10.1910142,17.17146 10.1910142,16.9931673 L10.1910142,14.5115755 Z" transform="matrix(-1 0 0 1 24 0)"/>
</svg>
