<svg xmlns="http://www.w3.org/2000/svg" width="24" height="24" viewBox="0 0 24 24">
  <path d="M13.8089858,14.5115755 L13.8089858,16.9931673 C13.8089858,17.17146 13.761318,17.3465107 13.67092,17.5001874 C13.3909005,17.9762205 12.7779988,18.135121 12.3019656,17.8551015 L3.813595,12.8619423 C3.66704133,12.7757342 3.54488895,12.6535819 3.45868091,12.5070282 C3.17866143,12.0309951 3.33756188,11.4180933 3.813595,11.1380738 L12.3019656,6.14491464 C12.4556423,6.05451661 12.630693,6.00684886 12.8089858,6.00684886 C13.3612705,6.00684886 13.8089858,6.45456411 13.8089858,7.00684886 L13.8089858,9.48844059 L19.4929799,6.14491464 C19.6466565,6.05451661 19.8217072,6.00684886 20,6.00684886 C20.5522847,6.00684886 21,6.45456411 21,7.00684886 L21,16.9931673 C21,17.17146 20.9523322,17.3465107 20.8619342,17.5001874 C20.5819147,17.9762205 19.969013,18.135121 19.4929799,17.8551015 L13.8089858,14.5115755 Z"/>
</svg>
