<svg xmlns="http://www.w3.org/2000/svg" xmlns:xlink="http://www.w3.org/1999/xlink" width="24" height="24" viewBox="0 0 24 24">
  <defs>
    <linearGradient id="battery-medium-b" x1="50%" x2="50%" y1="0%" y2="100%">
      <stop offset="0%" stop-color="#FFF" stop-opacity=".5"/>
      <stop offset="100%" stop-opacity=".5"/>
    </linearGradient>
    <rect id="battery-medium-a" width="2" height="6" x="7" y="9" rx="1"/>
    <rect id="battery-medium-c" width="2" height="6" x="11" y="9" rx="1"/>
  </defs>

    <g transform="rotate(90 8 14)">
      <path  d="M8 1L4 1M0 3L0 17C6.76353751e-17 17.5522847.44771525 18 1 18L11 18C11.5522847 18 12 17.5522847 12 17L12 3C12 2.44771525 11.5522847 2 11 2L1 2C.44771525 2-6.76353751e-17 2.44771525 0 3z"/>
  
    <use fill="#D8D8D8" xlink:href="#battery-medium-a"/>
    <rect width="1" height="4" x="8" y="10" fill="url(#battery-medium-b)" stroke-linejoin="square"  rx=".5"/>
    <g>
      <use fill="#D8D8D8" xlink:href="#battery-medium-c"/>
      <rect width="1" height="4" x="12" y="10" fill="url(#battery-medium-b)" stroke-linejoin="square"  rx=".5"/>
  

</svg>
