<svg xmlns="http://www.w3.org/2000/svg" width="24" height="24" viewBox="0 0 24 24">
  <g fill="none" fill-rule="evenodd" stroke-linejoin="round">
    <path  d="M3,20 C3,20 3,15.3333333 3,6 C3,6 5.000018,4 7.00001827,4 C9.00001854,4 12.0000183,6 12.0000183,6 C12.0000183,6 12.0000183,20 12.0000183,20 C12.0000183,20 9.00002713,18 7.00001827,18 C5.0000094,18 3,20 3,20 Z" transform="matrix(-1 0 0 1 15 0)"/>
    <path  d="M12,20 C12,20 12,15.3333333 12,6 C12,6 14.000018,4 16.0000183,4 C18.0000185,4 21.0000183,6 21.0000183,6 C21.0000183,6 21.0000183,20 21.0000183,20 C21.0000183,20 18.0000271,18 16.0000183,18 C14.0000094,18 12,20 12,20 Z"/>

</svg>
