<svg role="img" xmlns="http://www.w3.org/2000/svg" width="24" height="24" viewBox="0 0 24 24" aria-labelledby="bugIconTitle">
    <title id="bugIconTitle">Bug</title>    
    <path d="M15 6.99989086C16.1045695 6.99989086 17 7.89532136 17 8.99989086L17 16.458686C17 17.1113133 16.6815784 17.722892 16.1469254 18.0971494L12 21 7.85307456 18.0971494C7.31842164 17.722892 7 17.1113133 7 16.458686L7 8.99989086C7 7.89532136 7.8954305 6.99989086 9 6.99989086 9.00005899 5.34308677 10.3431821 4 12 4 13.6568179 4 14.999941 5.34308677 15 6.99989086zM4 13L7 13"/>
    <polyline points="3 7 5 9 7 9"/>
    <polyline points="21 7 19 9 17 9"/>
    <polyline points="3 19 5 17 7 17"/>
    <polyline points="17 17 19 17 21 19 21 19"/>
    <path d="M17,13 L20,13"/>
</svg>