<svg xmlns="http://www.w3.org/2000/svg" width="24" height="24" viewBox="0 0 24 24">
    <polyline points="17.833 13 16.083 14.75 14.333 13"/>
    <polyline points="6.167 13 7.917 11.25 9.667 13"/>
    <path d="M16.0833333 14.75L16.0925838 13.029408C16.0925838 10.7580037 14.2512468 8.91666667 11.9798425 8.91666667 11.1221301 8.91666667 10.3257418 9.17922618 9.66666667 9.62835602M14.3425838 16.4094543C13.6835087 16.8585841 12.8871204 17.1211436 12.029408 17.1211436 9.75800368 17.1211436 7.91666667 15.2798066 7.91666667 13.0084023L7.91666667 11.25"/>
    <path d="M8,7 L8.73960026,5.89059961 C9.11053182,5.33420227 9.73499447,5 10.4037009,5 L13.5962991,5 C14.2650055,5 14.8894682,5.33420227 15.2603997,5.89059961 L16,7 L20,7 C20.5522847,7 21,7.44771525 21,8 L21,19 C21,19.5522847 20.5522847,20 20,20 L4,20 C3.44771525,20 3,19.5522847 3,19 L3,8 C3,7.44771525 3.44771525,7 4,7 L8,7 Z"/>
</svg>
