<svg xmlns="http://www.w3.org/2000/svg" width="24" height="24" viewBox="0 0 24 24">

    <g transform="translate(5 6)">
      <polyline  points="0 0 1.75 1.75 3.5 0" transform="matrix(-1 0 0 1 12.833 7)"/>
      <polyline  points="0 0 1.75 1.75 3.5 0" transform="matrix(1 0 0 -1 1.167 7)"/>
      <path  d="M11.0833333 8.75L11.0925838 7.029408C11.0925838 4.75800368 9.25124679 2.91666667 6.97984247 2.91666667 6.12213009 2.91666667 5.32574176 3.17922618 4.66666667 3.62835602M9.34258381 10.4094543C8.68350871 10.8585841 7.88712039 11.1211436 7.029408 11.1211436 4.75800368 11.1211436 2.91666667 9.2798066 2.91666667 7.00840229L2.91666667 5.25"/>
  
    <path stroke-linejoin="round"  d="M8,7 L8.73960026,5.89059961 C9.11053182,5.33420227 9.73499447,5 10.4037009,5 L13.5962991,5 C14.2650055,5 14.8894682,5.33420227 15.2603997,5.89059961 L16,7 L20,7 C20.5522847,7 21,7.44771525 21,8 L21,19 C21,19.5522847 20.5522847,20 20,20 L4,20 C3.44771525,20 3,19.5522847 3,19 L3,8 C3,7.44771525 3.44771525,7 4,7 L8,7 Z"/>

</svg>
