<svg xmlns="http://www.w3.org/2000/svg" width="24" height="24" viewBox="0 0 24 24">
    <path  d="M16,3.92857143 L16,15.0714286 C16,15.5842644 15.5842644,16 15.0714286,16 L3.92857143,16 C3.41573559,16 3,15.5842644 3,15.0714286 L3,3.92857143 C3,3.41573559 3.41573559,3 3.92857143,3 L15.0714286,3 C15.5842644,3 16,3.41573559 16,3.92857143 Z"/>
    <path  d="M16.0232318,8 C16.922831,8 18.27223,8 20.0714286,8 C20.5842644,8 21,8.41573559 21,8.92857143 L21,20.0714286 C21,20.5842644 20.5842644,21 20.0714286,21 L8.92857143,21 C8.41573559,21 8,20.5842644 8,20.0714286 C8,18.3023945 8,16.9756189 8,16.0911019"/>
</svg>
