<svg width="24" height="24" viewBox="0 0 24 24" xmlns="http://www.w3.org/2000/svg" aria-labelledby="cartAddIconTitle">
	<title id="cartAddIconTitle">Add do cart</title>
	<path d="M21.2922 6L19.9463 14.1627C19.8666 14.6457 19.4491 15 18.9596 15H7.04304C6.55355 15 6.136 14.6457 6.05636 14.1627L4.84851 6.83731C4.76887 6.35434 4.35133 6 3.86183 6H2"/>
	<path d="M8 20C8.55228 20 9 19.5523 9 19C9 18.4477 8.55228 18 8 18C7.44772 18 7 18.4477 7 19C7 19.5523 7.44772 20 8 20Z"/>
	<path d="M18 20C18.5523 20 19 19.5523 19 19C19 18.4477 18.5523 18 18 18C17.4477 18 17 18.4477 17 19C17 19.5523 17.4477 20 18 20Z"/>
	<path d="M16 8H10"/>
	<path d="M13 5V11"/>
</svg>