<svg role="img" xmlns="http://www.w3.org/2000/svg" width="24" height="24" viewBox="0 0 24 24" aria-labelledby="cloudUploadIconTitle">
    <title id="cloudUploadIconTitle">Upload to Cloud</title>    
    <path d="M6.5,18 C4.01471863,18 2,15.9852814 2,13.5 C2,11.0147186 4.01471863,9 6.5,9 C6.9194849,9 7.3255638,9.05739789 7.71081142,9.16476838 C8.72277,7.28089089 10.711801,6 13,6 C15.9817502,6 18.4554927,8.17503894 18.9211951,11.0250841 C20.6555928,11.2331085 22,12.7095527 22,14.5 C22,16.4329966 20.4329966,18 18.5,18 L6.5,18 Z"/>
    <path d="M12,11 L12,15"/>
    <polyline points="10 12 12 10 14 12 14 12"/>
</svg>