<svg role="img" xmlns="http://www.w3.org/2000/svg" width="24" height="24" viewBox="0 0 24 24" aria-labelledby="ellypsisVerticalIconTitle">
    <title id="ellypsisVerticalIconTitle">Ellypsis</title>    
    <path d="M11 12C11 11.4477153 11.4477153 11 12 11 12.5522847 11 13 11.4477153 13 12 13 12.5522847 12.5522847 13 12 13 11.4477153 13 11 12.5522847 11 12zM11 6C11 5.44771525 11.4477153 5 12 5 12.5522847 5 13 5.44771525 13 6 13 6.55228475 12.5522847 7 12 7 11.4477153 7 11 6.55228475 11 6zM11 18C11 17.4477153 11.4477153 17 12 17 12.5522847 17 13 17.4477153 13 18 13 18.5522847 12.5522847 19 12 19 11.4477153 19 11 18.5522847 11 18z"/>
</svg>