<svg xmlns="http://www.w3.org/2000/svg" width="24" height="24" viewBox="0 0 24 24">
    <path d="M16 10.0866266L19.6990058 8.91910463C20.2256789 8.75287013 20.7873915 9.04506333 20.953626 9.57173641 20.9843607 9.66911173 21 9.77062 21 9.8727306L21 15.1409452C21 15.69323 20.5522847 16.1409452 20 16.1409452 19.8978894 16.1409452 19.7963811 16.1253059 19.6990058 16.0945712L16.0018088 14.9276201 16 10.0866266zM15 7C15.5522847 7 16 7.44771525 16 8L16 17C16 17.5522847 15.5522847 18 15 18L4 18C3.44771525 18 3 17.5522847 3 17L3 8C3 7.44771525 3.44771525 7 4 7L15 7z"/>
</svg>
