<svg width="24" height="24" viewBox="0 0 24 24" fill="none" xmlns="http://www.w3.org/2000/svg" aria-labelledby="flowerIconTitle">
    <title id="flowerIconTitle">Flower</title>
    <path d="M12 22C13.5819 22 14.8778 20.7757 14.9918 19.223C16.1704 20.2403 17.9525 20.1896 19.0711 19.0711C20.1896 17.9525 20.2402 16.1705 19.2229 14.9918C20.7757 14.8778 22 13.5819 22 12C22 10.4181 20.7757 9.12224 19.223 9.00816C20.2403 7.82955 20.1896 6.04748 19.0711 4.92894C17.9525 3.81038 16.1705 3.75976 14.9918 4.77708C14.8778 3.22433 13.5819 2 12 2C10.4181 2 9.12224 3.22431 9.00816 4.77704C7.82955 3.75974 6.04749 3.81036 4.92894 4.92891C3.81038 6.04747 3.75977 7.82955 4.77708 9.00816C3.22433 9.12221 2 10.4181 2 12C2 13.5819 3.2243 14.8778 4.77703 14.9918C3.75974 16.1704 3.81037 17.9525 4.92891 19.0711C6.04747 20.1896 7.82955 20.2402 9.00816 19.2229C9.12221 20.7757 10.4181 22 12 22Z"/>
    <path d="M12 14C10.8954 14 10 13.1046 10 12C10 10.8954 10.8954 10 12 10C13.1046 10 14 10.8954 14 12C14 13.1046 13.1046 14 12 14Z"/>
</svg>