<svg role="img" xmlns="http://www.w3.org/2000/svg" width="24" height="24" viewBox="0 0 24 24">
  <path d="M16.4718127,15.8860262 L12.5857864,12 L16.4718127,8.11397377 C16.659349,7.9264374 16.7647059,7.67208348 16.7647059,7.40686699 L16.7647059,5 C16.7647059,3.8954305 15.8692754,3 14.7647059,3 L9.23529412,3 C8.13072462,3 7.23529412,3.8954305 7.23529412,5 L7.23529412,7.40686699 C7.23529412,7.67208348 7.34065096,7.9264374 7.52818734,8.11397377 L11.4142136,12 L7.52818734,15.8860262 C7.34065096,16.0735626 7.23529412,16.3279165 7.23529412,16.593133 L7.23529412,19 C7.23529412,20.1045695 8.13072462,21 9.23529412,21 L14.7647059,21 C15.8692754,21 16.7647059,20.1045695 16.7647059,19 L16.7647059,16.593133 C16.7647059,16.3279165 16.659349,16.0735626 16.4718127,15.8860262 Z"/>
</svg>
