<svg role="img" xmlns="http://www.w3.org/2000/svg" width="24" height="24" viewBox="0 0 24 24" aria-labelledby="linkIconTitle">
    <title id="linkIconTitle">Link</title>    
    <path d="M10.5,15.5 C10.5,14.1666667 10.5,13.5 10.5,13.5 C10.5,10.7385763 8.26142375,8.5 5.5,8.5 C2.73857625,8.5 0.5,10.7385763 0.5,13.5 C0.5,13.5 0.5,14.1666667 0.5,15.5" transform="rotate(-90 5.5 12)"/>
    <path d="M8,12 L16,12"/>
    <path d="M23.5,15.5 C23.5,14.1666667 23.5,13.5 23.5,13.5 C23.5,10.7385763 21.2614237,8.5 18.5,8.5 C15.7385763,8.5 13.5,10.7385763 13.5,13.5 C13.5,13.5 13.5,14.1666667 13.5,15.5" transform="rotate(90 18.5 12)"/>
</svg>