<svg xmlns="http://www.w3.org/2000/svg" width="24" height="24" viewBox="0 0 24 24">

    <path stroke-linejoin="round"  d="M19,13 L19,20 C19,20.5522847 18.5522847,21 18,21 L4,21 C3.44771525,21 3,20.5522847 3,20 L3,4 C3,3.44771525 3.44771525,3 4,3 L13,3"/>
    <g  transform="translate(4 -1)">
      <path d="M9.58762627,1.6567235 L10.5373737,1.6567235 C11.6419432,1.6567235 12.5373737,2.552154 12.5373737,3.6567235 L12.5373737,16.9149756 C12.5373737,17.4454086 12.3266601,17.9541164 11.9515873,18.3291892 L10.0625,20.2182765 L8.1734127,18.3291892 C7.79833995,17.9541164 7.58762627,17.4454086 7.58762627,16.9149756 L7.58762627,3.6567235 C7.58762627,2.552154 8.48305677,1.6567235 9.58762627,1.6567235 Z" transform="rotate(45 10.063 10.938)"/>
      <path d="M12.25,5.25 L15.75,8.75"/>
  

</svg>
