<svg xmlns="http://www.w3.org/2000/svg" width="24" height="24" viewBox="0 0 24 24">
    <path  d="M9,8 L14,8"/>
    <path stroke-linejoin="round"  d="M18.0000183,3.99999899 L18.0000183,20 C18.0000183,20.5522847 17.552303,21 17.0000183,21 L6,21 C5.44771525,21 5,20.5522847 5,20 L5,3.99999899 C5,3.44771424 5.44771525,2.99999899 6,2.99999899 L17.0000183,2.99999899 C17.552303,2.99999899 18.0000183,3.44771424 18.0000183,3.99999899 Z"/>
    <path stroke-linejoin="round"  d="M5,19 L5,18 C5,17.4477153 5.44771525,17 6,17 L17,17 C17.5522847,17 18,17.4477153 18,18 L18,19"/>
</svg>
