<svg xmlns="http://www.w3.org/2000/svg" width="24" height="24" viewBox="0 0 24 24">
    <path  d="M1,18 C1,15.75 4,15.75 5.5,14.25 C6.25,13.5 4,13.5 4,9.75 C4,7.25025 4.99975,6 7,6 C9.00025,6 10,7.25025 10,9.75 C10,13.5 7.75,13.5 8.5,14.25 C10,15.75 13,15.75 13,18"/>
    <path  d="M11.9947329,16.2431035 C12.5617373,15.8523396 13.2977812,15.5709945 14.0021045,15.2317685 C14.552776,14.9665463 15.0840574,14.6659426 15.5,14.25 C16.25,13.5 14,13.5 14,9.75 C14,7.25025 14.99975,6 17,6 C19.00025,6 20,7.25025 20,9.75 C20,13.5 17.75,13.5 18.5,14.25 C20,15.75 23,15.75 23,18"/>
</svg>
