<svg xmlns="http://www.w3.org/2000/svg" width="24" height="24" viewBox="0 0 24 24">
  <path d="M12.5966924,18.6164927 L15.1613367,16.0518485 C15.5039959,15.7091893 16.0430283,15.6615261 16.440499,15.9387404 L19.9912313,18.4151843 C20.4442234,18.7311219 20.5553281,19.3544626 20.2393906,19.8074547 C20.2057336,19.8557123 20.1678834,19.9009053 20.1262805,19.942508 L19.8002752,20.2685114 C19.0207615,21.0480251 17.8765188,21.337214 16.8202459,21.0216657 C13.5910125,20.0569727 10.6901441,18.2883746 8.11764069,15.7158711 C5.54514096,13.1433714 3.77654417,10.2425077 2.81185031,7.01327987 C2.49628662,5.95700394 2.785477,4.81275344 3.56499585,4.03323459 L3.8910039,3.70722654 C4.28152819,3.31670225 4.91469317,3.31670225 5.30521746,3.70722654 C5.34681957,3.74882865 5.38466908,3.79402103 5.41832555,3.84227776 L7.89477141,7.39301281 C8.17198573,7.79048348 8.12432256,8.3295159 7.78166332,8.67217515 L5.21701908,11.2368194"/>
</svg>
