<svg width="24" height="24" viewBox="0 0 24 24" fill="none" xmlns="http://www.w3.org/2000/svg" aria-labelledby="pizzaIconTitle">
    <title id="pizzaIconTitle">Pizza</title>
    <path d="M20 17.8564C17.5677 19.2607 14.8086 20 12 20C9.19141 20 6.43231 19.2607 4 17.8564L12 4L20 17.8564Z"/>
    <path d="M20 17.8564C17.5677 19.2607 14.8086 20 12 20C9.19141 20 6.43231 19.2607 4 17.8564L12 4L20 17.8564Z"/>
    <path d="M5.4989 15.2603C7.41127 16.3667 9.63167 17 12 17C14.3683 17 16.5887 16.3667 18.5011 15.2603"/>
    <circle cx="10" cy="14" r="1"/>
    <circle cx="13" cy="13" r="1"/>
    <circle cx="12" cy="10" r="1"/>
</svg>