<svg xmlns="http://www.w3.org/2000/svg" width="24" height="24" viewBox="0 0 24 24">
    <path d="M17 15L17 20C17 20.5522847 16.5522847 21 16 21L8 21C7.44771525 21 7 20.5522847 7 20L7 15C7 14.4477153 7.44771525 14 8 14L16 14C16.5522847 14 17 14.4477153 17 15zM17 4L17 8C17 8.55228475 16.5522847 9 16 9L8 9C7.44771525 9 7 8.55228475 7 8L7 4C7 3.44771525 7.44771525 3 8 3L16 3C16.5522847 3 17 3.44771525 17 4z"/>
    <path d="M7,18 L4,18 C3.44771525,18 3,17.6336875 3,17.1818182 L3,9.81818182 C3,9.36631248 3.44771525,9 4,9 L20,9 C20.5522847,9 21,9.36631248 21,9.81818182 L21,17.1818182 C21,17.6336875 20.5522847,18 20,18 L17,18"/>
</svg>
