<svg width="24" height="24" viewBox="0 0 24 24" fill="none" xmlns="http://www.w3.org/2000/svg" aria-labelledby="qrIconTitle">
    <title id="qrIconTitle">QR Code</title>
    <rect x="10" y="3" width="7" height="7" transform="rotate(90 10 3)"/>
    <rect width="1" height="1" transform="matrix(-1 0 0 1 7 6)"/>
    <rect x="10" y="14" width="7" height="7" transform="rotate(90 10 14)"/>
    <rect x="6" y="17" width="1" height="1"/>
    <rect x="14" y="20" width="1" height="1"/>
    <rect x="17" y="17" width="1" height="1"/>
    <rect x="14" y="14" width="1" height="1"/>
    <rect x="20" y="17" width="1" height="1"/>
    <rect x="20" y="14" width="1" height="1"/>
    <rect x="20" y="20" width="1" height="1"/>
    <rect x="21" y="3" width="7" height="7" transform="rotate(90 21 3)"/>
    <rect x="17" y="6" width="1" height="1"/>
</svg>