<svg xmlns="http://www.w3.org/2000/svg" width="24" height="24" viewBox="0 0 24 24">
    <path  d="M19.051177 17.9568482C20.7223033 17.6924988 22 16.2454604 22 14.5 22 12.7095527 20.6555928 11.2331085 18.9211951 11.0250841 18.4554927 8.17503894 15.9817502 6 13 6 10.711801 6 8.72277 7.28089089 7.71081142 9.16476838 7.3255638 9.05739789 6.9194849 9 6.5 9 4.01471863 9 2 11.0147186 2 13.5 2 15.8113421 3.74257606 17.7156838 5.98562648 17.9709234 6.0981598 17.9837287 6.43628431 17.979037 7 17.9568482M16 18L17 21M13 18L14 21M10 18L11 21"/>
</svg>
