<svg role="img" xmlns="http://www.w3.org/2000/svg" width="24" height="24" viewBox="0 0 24 24">
  <path d="M5.03506429,12.7050339 C5.01187484,12.4731696 5,12.2379716 5,12 C5,11.7620284 5.01187484,11.5268304 5.03506429,11.2949661 L4.16217554,10.3105991 C3.59102025,9.66650054 3.49610018,8.72918655 3.92653059,7.98365922 L4.48501215,7.01634078 C4.91544255,6.27081345 5.77464032,5.88435965 6.61802369,6.05694534 L7.9069713,6.32070904 C8.28729123,6.0461342 8.69629298,5.80882212 9.12862533,5.61412402 L9.54415184,4.36754447 C9.81637994,3.55086019 10.5806576,3 11.4415184,3 L12.5584816,3 C13.4193424,3 14.1836201,3.55086019 14.4558482,4.36754447 L14.8713747,5.61412402 C15.303707,5.80882212 15.7127088,6.0461342 16.0930287,6.32070904 L17.3819763,6.05694534 C18.2253597,5.88435965 19.0845574,6.27081345 19.5149879,7.01634078 L20.0734694,7.98365922 C20.5038998,8.72918655 20.4089797,9.66650054 19.8378245,10.3105991 L18.9649357,11.2949661 C18.9881252,11.5268304 19,11.7620284 19,12 C19,12.2379716 18.9881252,12.4731696 18.9649357,12.7050339 L19.8378245,13.6894009 C20.4089797,14.3334995 20.5038998,15.2708134 20.0734694,16.0163408 L19.5149879,16.9836592 C19.0845574,17.7291866 18.2253597,18.1156404 17.3819763,17.9430547 L16.0930287,17.679291 C15.7127088,17.9538658 15.303707,18.1911779 14.8713747,18.385876 L14.4558482,19.6324555 C14.1836201,20.4491398 13.4193424,21 12.5584816,21 L11.4415184,21 C10.5806576,21 9.81637994,20.4491398 9.54415184,19.6324555 L9.12862533,18.385876 C8.69629298,18.1911779 8.28729123,17.9538658 7.9069713,17.679291 L6.61802369,17.9430547 C5.77464032,18.1156404 4.91544255,17.7291866 4.48501215,16.9836592 L3.92653059,16.0163408 C3.49610018,15.2708134 3.59102025,14.3334995 4.16217554,13.6894009 L5.03506429,12.7050339 Z"/>
  <circle cx="12" cy="12" r="1" />
</svg>
