<svg xmlns="http://www.w3.org/2000/svg" width="24" height="24" viewBox="0 0 24 24">
  <g fill-rule="evenodd"  transform="translate(3 3)">
    <path stroke-linejoin="round" d="M18,1 L18,8 C18,13.5228475 13.5228475,18 8,18 L1,18 C0.44771525,18 6.76353751e-17,17.5522847 0,17 L0,1 C-6.76353751e-17,0.44771525 0.44771525,1.01453063e-16 1,0 L17,0 C17.5522847,-1.01453063e-16 18,0.44771525 18,1 Z"/>
    <path d="M6,18 C8.66666667,18 10,16.6666667 10,14 C10,13 10,12 10,11 L10,11 C10,10.4477153 10.4477153,10 11,10 L14,10 C16.6666667,10 18,8.66666667 18,6"/>

</svg>
