<svg role="img" xmlns="http://www.w3.org/2000/svg" width="24" height="24" viewBox="0 0 24 24" aria-labelledby="supportIconTitle">
    <title id="supportIconTitle">Support</title>    
    <path d="M18,9 L16,9 C14.8954305,9 14,9.8954305 14,11 L14,13 C14,14.1045695 14.8954305,15 16,15 L16,15 C17.1045695,15 18,14.1045695 18,13 L18,9 C18,4.02943725 13.9705627,0 9,0 C4.02943725,0 0,4.02943725 0,9 L0,13 C1.3527075e-16,14.1045695 0.8954305,15 2,15 L2,15 C3.1045695,15 4,14.1045695 4,13 L4,11 C4,9.8954305 3.1045695,9 2,9 L0,9" transform="translate(3 3)"/>
    <path d="M21,14 L21,18 C21,20 20.3333333,21 19,21 C17.6666667,21 16,21 14,21"/>
</svg>