<svg role="img" xmlns="http://www.w3.org/2000/svg" width="24" height="24" viewBox="0 0 24 24" aria-labelledby="thunderIconTitle">
    <title id="thunderIconTitle">Thunder</title>    
    <polyline points="13 15 14 18 12 18 13 21"/>
    <path d="M19.051177,17.9568482 C20.5,17.9709234 22,16.2454604 22,14.5 C22,12.7095527 20.6555928,11.2331085 18.9211951,11.0250841 C18.4554927,8.17503894 15.9817502,6 13,6 C10.711801,6 8.72277,7.28089089 7.71081142,9.16476838 C7.3255638,9.05739789 6.9194849,9 6.5,9 C4.01471863,9 2,11.0147186 2,13.5 C2,15.8113421 3.5,17.9709234 5.98562648,17.9709234 C5.98562648,17.9709234 6.32375099,17.9709234 7,17.9709234"/>
</svg>