<svg role="img" xmlns="http://www.w3.org/2000/svg" width="24" height="24" viewBox="0 0 24 24" aria-labelledby="toolIconTitle">
    <title id="toolIconTitle">Tool</title>    
    <path d="M9.74292939,13.7429294 C9.19135019,13.9101088 8.60617271,14 8,14 C4.6862915,14 2,11.3137085 2,8 C2,7.07370693 2.20990431,6.19643964 2.58474197,5.4131691 L6.94974747,9.77817459 L9.77817459,6.94974747 L5.4131691,2.58474197 C6.19643964,2.20990431 7.07370693,2 8,2 C11.3137085,2 14,4.6862915 14,8 C14,8.88040772 13.8103765,9.71652648 13.4697429,10.4697429 L20.5858636,17.5858636 C21.3669122,18.3669122 21.3669122,19.6332422 20.5858636,20.4142907 L19.9142907,21.0858636 C19.1332422,21.8669122 17.8669122,21.8669122 17.0858636,21.0858636 L9.74292939,13.7429294 Z"/>
</svg>