<svg xmlns="http://www.w3.org/2000/svg" width="24" height="24" viewBox="0 0 24 24">
    <path d="M14,13 C14.5046213,12.4953787 14.5046213,11.5046213 14,11"/>
    <path d="M13,6.8025749 L13,18.3117292 C13,18.8640139 12.5522847,19.3117292 12,19.3117292 C11.7497164,19.3117292 11.5085315,19.2178752 11.3240789,19.0487032 L8,16 L4,16 C3.44771525,16 3,15.5522847 3,15 L3,10 C3,9.44771525 3.44771525,9 4,9 L8,9 L11.3381719,6.05291922 C11.7521953,5.68740168 12.3841381,5.72672345 12.7496557,6.14074685 C12.9109743,6.32347318 13,6.55882788 13,6.8025749 Z"/>
    <path d="M16 16C18.0858253 13.9141747 18.0858253 10.0858253 16 8M18 19C21.98552 15.01448 22.0076803 9.00768033 18 5"/>
</svg>
