<svg xmlns="http://www.w3.org/2000/svg" width="24" height="24" viewBox="0 0 24 24">

    <g >
      <path stroke-linejoin="round" d="M2.41421356,7 L13.5857864,7 C14.1380712,7 14.5857864,7.44771525 14.5857864,8 C14.5857864,8.26521649 14.4804296,8.5195704 14.2928932,8.70710678 L11,12 L11,16 C11,16.5522847 10.5522847,17 10,17 L6,17 C5.44771525,17 5,16.5522847 5,16 L5,12 L1.70710678,8.70710678 C1.31658249,8.31658249 1.31658249,7.68341751 1.70710678,7.29289322 C1.89464316,7.10535684 2.14899707,7 2.41421356,7 Z" transform="rotate(90 8 12)"/>
      <path d="M14 13C14.5046213 12.4953787 14.5046213 11.5046213 14 11M16 16C18.0858253 13.9141747 18.0858253 10.0858253 16 8"/>
  
    <path  d="M18,19 C21.98552,15.01448 22.0076803,9.00768033 18,5"/>

</svg>
