<svg xmlns="http://www.w3.org/2000/svg" xmlns:xlink="http://www.w3.org/1999/xlink" width="24" height="24" viewBox="0 0 24 24">
  <defs>
    <linearGradient id="battery-low-b" x1="50%" x2="50%" y1="0%" y2="100%">
      <stop offset="0%" stop-color="#FFF" stop-opacity=".5"/>
      <stop offset="100%" stop-opacity=".5"/>
    </linearGradient>
    <rect id="battery-low-a" width="2" height="6" x="7" y="9" rx="1"/>
  </defs>
  <g fill="none" fill-rule="evenodd">
    <g stroke="#0E3FF2" stroke-linecap="round" transform="rotate(90 8 14)">
      <path stroke-width="2" d="M8 1L4 1M0 3L0 17 0 17C-9.13419418e-16 17.5522847.44771525 18 1 18L11 18 11 18C11.5522847 18 12 17.5522847 12 17L12 3 12 3C12 2.44771525 11.5522847 2 11 2L1 2 1 2C.44771525 2-6.76353751e-17 2.44771525 0 3z"/>
    </g>
    <use fill="#D8D8D8" xlink:href="#battery-low-a"/>
    <use fill="url(#battery-low-b)" xlink:href="#battery-low-a"/>
    <rect width="1" height="4" x="8" y="10" stroke="#0E3FF2" stroke-width="2" rx=".5"/>
  </g>
</svg>
