<svg xmlns="http://www.w3.org/2000/svg" width="24" height="24" viewBox="0 0 24 24">
  <g fill="none" fill-rule="evenodd" stroke="#0E3FF2" stroke-width="2">
    <path d="M12,20.7981496 L16.5547002,17.7616828 C16.8328989,17.576217 17,17.2639857 17,16.9296325 L17,8 C17,7.44771525 16.5522847,7 16,7 L15.098773,7 L14.9055455,6.24925846 C14.5674457,4.93564865 13.3767377,4 12,4 C10.6232623,4 9.43255428,4.93564865 9.09445448,6.24925846 L8.90122697,7 L8,7 C7.44771525,7 7,7.44771525 7,8 L7,16.9296325 C7,17.2639857 7.16710114,17.576217 7.4452998,17.7616828 L12,20.7981496 Z"/>
    <path stroke-linecap="round" stroke-linejoin="round" d="M4,13 L6,13"/>
    <polyline stroke-linecap="round" stroke-linejoin="round" points="3 7 5 9 6 9"/>
    <polyline stroke-linecap="round" stroke-linejoin="round" points="18 7 20 9 21 9" transform="matrix(-1 0 0 1 39 0)"/>
    <polyline stroke-linecap="round" stroke-linejoin="round" points="3 17 5 19 6 19" transform="matrix(1 0 0 -1 0 36)"/>
    <polyline stroke-linecap="round" stroke-linejoin="round" points="18 17 20 19 21 19" transform="rotate(180 19.5 18)"/>
    <path stroke-linecap="round" stroke-linejoin="round" d="M18,13 L20,13"/>
  </g>
</svg>
