<svg xmlns="http://www.w3.org/2000/svg" width="24" height="24" viewBox="0 0 24 24">
  <g fill="none" fill-rule="evenodd" stroke="#0E3FF2" stroke-width="2">
    <path d="M6,3 C4.34314575,3 3,4.34314575 3,6 L3,20 C3,20.5522847 3.44771525,21 4,21 L20,21 C20.5522847,21 21,20.5522847 21,20 L21,6 C21,4.34314575 19.6568542,3 18,3 L6,3 Z"/>
    <path stroke-linecap="round" d="M21,8 L3,8"/>
    <path stroke-linecap="round" stroke-linejoin="round" d="M8,12 C8.59695367,11.3333333 9.26362033,11 10,11 C11.1045695,11 12,11.8954305 12,13 C12,13.5973463 11.7381226,14.1335278 11.3229122,14.5 C11.7381226,14.8664722 12,15.4026537 12,16 C12,17.1045695 11.1045695,18 10,18 C9.33333333,18 8.66666667,17.6666667 8,17"/>
    <path stroke-linecap="round" d="M11.5 14.5L9.91886117 14.5M16 11L16 18"/>
  </g>
</svg>
