<svg xmlns="http://www.w3.org/2000/svg" width="24" height="24" viewBox="0 0 24 24">
  <g fill="none" fill-rule="evenodd" stroke="#0E3FF2" stroke-width="2">
    <path d="M9,6.15851715 L9,7 L4,7 C3.44771525,7 3,7.44771525 3,8 L3,17 C3,17.5522847 3.44771525,18 4,18 L20,18 C20.5522847,18 21,17.5522847 21,17 L21,8 C21,7.44771525 20.5522847,7 20,7 L15,7 L15,6.15851715 L14.4569536,5.4118283 C14.2687759,5.15308404 13.9681541,5 13.6482175,5 L10.3517825,5 C10.0318459,5 9.73122408,5.15308404 9.54304643,5.4118283 L9,6.15851715 Z"/>
    <circle cx="12" cy="12" r="3"/>
  </g>
</svg>
