<svg xmlns="http://www.w3.org/2000/svg" width="24" height="24" viewBox="0 0 24 24">
  <g fill="none" fill-rule="evenodd" stroke="#0E3FF2" stroke-width="2">
    <path stroke-linecap="round" stroke-linejoin="round" d="M6.88880902,6 L20.1137825,6 L20.1137825,6 C20.6660673,6 21.1137825,6.44771525 21.1137825,7 C21.1137825,7.05450229 21.1093268,7.10891336 21.1004599,7.16268953 L19.9462561,14.1626895 L19.9462561,14.1626895 C19.8666204,14.6456626 19.4490732,15 18.9595788,15 L8.04301281,15 L8.04301281,15 C7.55351832,15 7.13597113,14.6456626 7.0563355,14.1626895 L5.90213171,7.16268953 L5.90213171,7.16268953 C5.81228076,6.6177627 6.18119266,6.10317363 6.72611949,6.01332269 C6.77989566,6.00445574 6.83430673,6 6.88880902,6 Z"/>
    <circle cx="9" cy="19" r="1"/>
    <circle cx="18" cy="19" r="1"/>
    <path stroke-linecap="round" d="M7,6 L3,6"/>
  </g>
</svg>
