<svg xmlns="http://www.w3.org/2000/svg" width="24" height="24" viewBox="0 0 24 24">
  <g fill="none" fill-rule="evenodd" stroke="#0E3FF2" stroke-linecap="round" stroke-width="2">
    <path d="M2 13L2 20 2 20C2 20.5522847 2.44771525 21 3 21L5 21 5 21C5.55228475 21 6 20.5522847 6 20L6 13 6 13C6 12.4477153 5.55228475 12 5 12L3 12 3 12C2.44771525 12 2 12.4477153 2 13zM10 4L10 20 10 20C10 20.5522847 10.4477153 21 11 21L13 21 13 21C13.5522847 21 14 20.5522847 14 20L14 4 14 4C14 3.44771525 13.5522847 3 13 3L11 3 11 3C10.4477153 3 10 3.44771525 10 4zM18 8L18 20 18 20C18 20.5522847 18.4477153 21 19 21L21 21 21 21C21.5522847 21 22 20.5522847 22 20L22 8 22 8C22 7.44771525 21.5522847 7 21 7L19 7 19 7C18.4477153 7 18 7.44771525 18 8z"/>
  </g>
</svg>
