<svg xmlns="http://www.w3.org/2000/svg" width="24" height="24" viewBox="0 0 24 24">
  <g fill="none" fill-rule="evenodd" stroke="#0E3FF2" stroke-linecap="round" stroke-width="2">
    <g transform="translate(5 5)">
      <path d="M14.5512161,16.8362839 L14.5512161,13.4085339 L14.5512161,13.4085339 C14.5512161,12.195346 14.0006177,11.0477176 13.0543302,10.2885307 L2.16371606,1.55121606" transform="rotate(-90 8.357 9.194)"/>
      <polyline points="12.5 1.5 15.5 4.5 18.5 1.5" transform="rotate(-90 15.5 3)"/>
    </g>
    <g transform="matrix(-1 0 0 1 19 5)">
      <path d="M14.5512161,16.8362839 L14.5512161,13.4085339 L14.5512161,13.4085339 C14.5512161,12.195346 14.0006177,11.0477176 13.0543302,10.2885307 L2.16371606,1.55121606" transform="rotate(-90 8.357 9.194)"/>
      <polyline points="12.5 1.5 15.5 4.5 18.5 1.5" transform="rotate(-90 15.5 3)"/>
    </g>
  </g>
</svg>
