<svg xmlns="http://www.w3.org/2000/svg" width="24" height="24" viewBox="0 0 24 24">
  <g fill="none" fill-rule="evenodd" stroke="#0E3FF2" stroke-width="2">
    <path stroke-linecap="round" d="M12 10L12 13M12 16L12 16"/>
    <path stroke-linejoin="round" d="M12.8619342,4.46528817 L21.1135176,18.4929799 L21.1135176,18.4929799 C21.3935371,18.969013 21.2346366,19.5819147 20.7586035,19.8619342 C20.6049268,19.9523322 20.4298761,20 20.2515834,20 L3.74841664,20 L3.74841664,20 C3.19613189,20 2.74841664,19.5522847 2.74841664,19 C2.74841664,18.8217072 2.7960844,18.6466565 2.88648243,18.4929799 L11.1380658,4.46528817 L11.1380658,4.46528817 C11.4180853,3.98925504 12.030987,3.83035459 12.5070201,4.11037408 C12.6535738,4.19658212 12.7757262,4.3187345 12.8619342,4.46528817 Z"/>
  </g>
</svg>
