<svg xmlns="http://www.w3.org/2000/svg" width="24" height="24" viewBox="0 0 24 24">
  <g fill="none" fill-rule="evenodd" stroke="#0E3FF2" stroke-linecap="round" stroke-width="2">
    <path d="M21,14.9267812 L17.3009942,16.0943032 L17.3009942,16.0943032 C16.7743211,16.2605377 16.2126085,15.9683445 16.046374,15.4416714 C16.0156393,15.3442961 16,15.2427878 16,15.1406772 L16,9.8724626 L16,9.8724626 C16,9.32017785 16.4477153,8.8724626 17,8.8724626 C17.1021106,8.8724626 17.2036189,8.88810193 17.3009942,8.91883663 L20.9981912,10.0857877" transform="rotate(-180 18.5 12.507)"/>
    <path d="M4,7 L4,18 L4,18 C4,18.5522847 4.44771525,19 5,19 L14,19 L14,19 C14.5522847,19 15,18.5522847 15,18 L15,7 L15,7 C15,6.44771525 14.5522847,6 14,6 L5,6 L5,6 C4.44771525,6 4,6.44771525 4,7 Z" transform="rotate(90 9.5 12.5)"/>
  </g>
</svg>
