<svg xmlns="http://www.w3.org/2000/svg" width="24" height="24" viewBox="0 0 24 24">
  <g fill="none" fill-rule="evenodd" stroke="#0E3FF2" stroke-linecap="round" stroke-width="2">
    <path d="M16,21 L16,17 L16,17 C16,16.4477153 16.4477153,16 17,16 L21,16" transform="rotate(-180 18.5 18.5)"/>
    <path d="M3,21 L3,17 L3,17 C3,16.4477153 3.44771525,16 4,16 L8,16" transform="rotate(-90 5.5 18.5)"/>
    <path d="M16,8 L16,4 L16,4 C16,3.44771525 16.4477153,3 17,3 L21,3" transform="rotate(90 18.5 5.5)"/>
    <path d="M3,8 L3,4 L3,4 C3,3.44771525 3.44771525,3 4,3 L8,3"/>
  </g>
</svg>
