<svg xmlns="http://www.w3.org/2000/svg" width="24" height="24" viewBox="0 0 24 24">
  <g fill="none" fill-rule="evenodd" stroke="#0E3FF2" stroke-width="2">
    <path d="M13.1013979,-0.380835149 L14.1013979,-0.380835149 L14.1013979,-0.380835149 C15.2059674,-0.380835149 16.1013979,0.514595351 16.1013979,1.61916485 L16.1013979,17.7907377 L16.1013979,17.7907377 C16.1013979,18.3211707 15.8906842,18.8298785 15.5156115,19.2049513 L13.6013979,21.1191649 L11.6871843,19.2049513 L11.6871843,19.2049513 C11.3121116,18.8298785 11.1013979,18.3211707 11.1013979,17.7907377 L11.1013979,1.61916485 L11.1013979,1.61916485 C11.1013979,0.514595351 11.9968284,-0.380835149 13.1013979,-0.380835149 Z" transform="rotate(45 13.601 10.37)"/>
    <path stroke-linecap="round" stroke-linejoin="round" d="M18,14 L18,21 L18,21 C18,21.5522847 17.5522847,22 17,22 L3,22 L3,22 C2.44771525,22 2,21.5522847 2,21 L2,5 L2,5 C2,4.44771525 2.44771525,4 3,4 L3,4 L12,4"/>
    <path d="M16,4 L20,8"/>
  </g>
</svg>
