<svg xmlns="http://www.w3.org/2000/svg" width="24" height="24" viewBox="0 0 24 24">
  <g fill="none" fill-rule="evenodd" stroke="#0E3FF2" stroke-width="2">
    <polygon stroke-linejoin="round" points="12.251 2.154 18.784 4.86 21.846 12.251 19.14 18.784 11.749 21.846 5.216 19.14 2.154 11.749 4.86 5.216" transform="rotate(22.5 12 12)"/>
    <path stroke-linecap="round" d="M10,8 L10,16 L10,16 C10,16.5522847 10.4477153,17 11,17 L13,17 L13,17 C13.5522847,17 14,16.5522847 14,16 L14,8 L14,8 C14,7.44771525 13.5522847,7 13,7 L11,7 L11,7 C10.4477153,7 10,7.44771525 10,8 Z" transform="rotate(90 12 12)"/>
  </g>
</svg>
