<svg xmlns="http://www.w3.org/2000/svg" width="24" height="24" viewBox="0 0 24 24">
  <path fill="none" stroke="#0E3FF2" stroke-linecap="square" stroke-linejoin="round" stroke-width="2" d="M20,14 L20.0058962,14 L20.0174523,7.5 C20.0174523,6.67157288 19.3458794,6 18.5174523,6 C17.6890252,6 17.0174523,6.67157288 17.0174523,7.5 L17.0174523,11 L17.0174523,5.5 C17.0174523,4.67157288 16.3458794,4 15.5174523,4 C14.6890252,4 14.0174523,4.67157288 14.0174523,5.5 L14.0174523,11 L14.0174523,4.5 C14.0174523,3.67157288 13.3458794,3 12.5174523,3 C11.6890252,3 11.0174523,3.67157288 11.0174523,4.5 L11.0174523,11 L11.0174523,6.5 C11.0174523,5.67157288 10.3458794,5 9.5174523,5 C8.68902517,5 8.0174523,5.67157288 8.0174523,6.5 L8,11 L8.00393081,13 L8,13 L8,14.5 L6.02722571,12.5246028 L6.02722571,12.5246028 C5.38335813,11.8798792 4.35756041,11.8227235 3.64605479,12.391928 L3.64605479,12.391928 C2.94777982,12.950548 2.81508416,13.9608139 3.34541668,14.6808081 L6.80103128,19.3722467 L6.80103128,19.3722467 C7.55493392,20.3957659 8.75045497,21 10.0216594,21 L10.0216594,21 L16,21 L16,21 C18.209139,21 20,19.209139 20,17 L20,14 Z"/>
</svg>
