<svg xmlns="http://www.w3.org/2000/svg" width="24" height="24" viewBox="0 0 24 24">
  <g fill="none" fill-rule="evenodd" stroke="#0E3FF2" stroke-linecap="round" stroke-width="2">
    <g transform="translate(1 6)">
      <path d="M6,12 C6,9.75 9,9.75 10.5,8.25 C11.25,7.5 9,7.5 9,3.75 C9,1.25 10,0 12,0" transform="matrix(-1 0 0 1 18 0)"/>
      <path d="M0,12 C0,9.75 3,9.75 4.5,8.25 C5.25,7.5 3,7.5 3,3.75 C3,1.25 4,0 6,0"/>
    </g>
    <g transform="translate(14 6)">
      <path d="M3,12 C3,9.75 6,9.75 7.5,8.25 C8.25,7.5 6,7.5 6,3.75 C6,1.25 7,0 9,0" transform="matrix(-1 0 0 1 12 0)"/>
      <path d="M0.479671252,8.98699958 C0.854788379,8.78009875 1.20617241,8.54382759 1.5,8.25 C2.25,7.5 0,7.5 0,3.75 C0,1.25 1,0 3,0"/>
    </g>
  </g>
</svg>
