<svg xmlns="http://www.w3.org/2000/svg" width="24" height="24" viewBox="0 0 24 24">
  <path fill="none" stroke="#0E3FF2" stroke-linecap="round" stroke-width="2" d="M5.34264307,11.0685372 L5.34264307,14.6954919 L5.34264307,14.6954919 C5.34264307,15.1800852 4.99519254,15.5949417 4.51811821,15.6799757 L0.256257722,16.4396129 L0.256257722,16.4396129 C-0.287457702,16.5365251 -0.806789035,16.1743196 -0.903701275,15.6306042 C-0.914025225,15.5726828 -0.919217411,15.5139633 -0.919217411,15.455129 L-0.919217411,14.9749525 L-0.919217411,14.9749525 C-0.919217411,13.8855642 -0.322393117,12.8837329 0.635590198,12.3650472 C3.60625559,10.7566292 6.91467833,9.95241856 10.5608601,9.95241856 C14.207042,9.95241856 17.5154647,10.7566292 20.4861284,12.3650504 L20.4861301,12.3650472 C21.4441134,12.8837329 22.0409377,13.8855642 22.0409377,14.9749525 L22.0409377,15.455129 L22.0409377,15.455129 C22.0409377,16.0074138 21.5932224,16.455129 21.0409377,16.455129 C20.9821034,16.455129 20.9233839,16.4499369 20.8654626,16.4396129 L16.6036021,15.6799757 L16.6036021,15.6799757 C16.1265277,15.5949417 15.7790772,15.1800852 15.7790772,14.6954919 L15.7790772,11.0685372" transform="rotate(-135 10.56 13.204)"/>
</svg>
