<svg xmlns="http://www.w3.org/2000/svg" width="24" height="24" viewBox="0 0 24 24">
  <g fill="none" fill-rule="evenodd" stroke="#0E3FF2" stroke-linecap="round" stroke-linejoin="round" stroke-width="2">
    <rect width="7" height="10" x="8.5" y="12.5" rx="1" transform="rotate(90 12 17.5)"/>
    <rect width="6" height="10" x="9" y="1" rx="1" transform="rotate(90 12 6)"/>
    <path d="M16.5,18.5 L16.5,21.5 L16.5,21.5 C16.5,22.0522847 16.1336875,22.5 15.6818182,22.5 L8.31818182,22.5 L8.31818182,22.5 C7.86631248,22.5 7.5,22.0522847 7.5,21.5 L7.5,5.5 L7.5,5.5 C7.5,4.94771525 7.86631248,4.5 8.31818182,4.5 L8.31818182,4.5 L15.6818182,4.5 L15.6818182,4.5 C16.1336875,4.5 16.5,4.94771525 16.5,5.5 L16.5,8.5" transform="rotate(90 12 13.5)"/>
  </g>
</svg>
