<svg xmlns="http://www.w3.org/2000/svg" width="24" height="24" viewBox="0 0 24 24">
  <g fill="none" fill-rule="evenodd" stroke="#0E3FF2" stroke-linecap="round" stroke-width="2" transform="translate(2 6)">
    <path d="M13.519962,15.519962 L13.519962,12.2906943 L13.519962,12.2906943 C13.519962,10.336353 12.5681279,8.5044732 10.9689438,7.38105852 L8.03105616,5.31721474 L8.03105616,5.31721474 C6.43187207,4.19380006 5.48003805,2.36192031 5.48003805,0.407578912 L5.48003805,-3.48003805" transform="rotate(-90 9.5 6.02)"/>
    <path d="M14.019962,15.019962 L14.019962,11.7906943 L14.019962,11.7906943 C14.019962,9.83635295 13.0681279,8.0044732 11.4689438,6.88105852 L8.53105616,4.81721474 L8.53105616,4.81721474 C6.93187207,3.69380006 5.98003805,1.86192031 5.98003805,-0.0924210882 L5.98003805,-2.98003805" transform="matrix(0 1 1 0 3.98 -3.98)"/>
    <polyline points="17 1 19 3 21 1" transform="rotate(-90 19 2)"/>
    <polyline points="17 9 19 11 21 9" transform="rotate(-90 19 10)"/>
  </g>
</svg>
