<svg xmlns="http://www.w3.org/2000/svg" width="24" height="24" viewBox="0 0 24 24">
  <g fill="none" fill-rule="evenodd" stroke="#0E3FF2" stroke-width="2">
    <path d="M5.41666667,15 L15.4166667,15 C17.0274972,15 18.3333333,13.6941639 18.3333333,12.0833333 C18.3333333,10.5912939 17.212994,9.36092377 15.7676626,9.18757011 C15.3795773,6.81253245 13.3181251,5 10.8333333,5 C8.92650079,5 7.268975,6.06740907 6.42567619,7.63730699 C6.1046365,7.54783158 5.76623742,7.5 5.41666667,7.5 C3.34559885,7.5 1.66666667,9.17893219 1.66666667,11.25 C1.66666667,13.3210678 3.34559885,15 5.41666667,15 Z" transform="translate(1 3)"/>
    <path d="M18.1520257,12.8316143 C18.8924459,12.6093095 19.5425569,12.178252 20.033992,11.6068088 C20.636087,10.9066896 21,9.99584299 21,9 C21,6.790861 19.209139,5 17,5 C15.9966193,5 15.0795266,5.36944286 14.3773295,5.97972096 C13.7671173,6.51005521 13.3191875,7.22226063 13.117938,8.03193915"/>
  </g>
</svg>
