<svg xmlns="http://www.w3.org/2000/svg" width="24" height="24" viewBox="0 0 24 24">
  <g fill="none" fill-rule="evenodd" stroke="#0E3FF2" stroke-width="2">
    <path d="M11,8 L9.42229124,7.21114562 C9.14458037,7.07229018 8.83835424,7 8.52786405,7 L7.82842712,7 C7.29799415,7 6.78928632,7.21071368 6.41421356,7.58578644 L5.58578644,8.41421356 C5.21071368,8.78928632 5,9.29799415 5,9.82842712 L5,14.9296325 C5,15.5983389 5.33420227,16.2228015 5.89059961,16.5937331 L9.7574558,19.1716372 C10.4944306,19.6629537 11.4667857,19.6110119 12.147225,19.0439792 L17,15"/>
    <path d="M14.7574819,12.3721284 L16.3922209,13.3012174 C17.1184947,13.7139885 18.0310338,13.5907003 18.6217341,13 L18.6217341,13 C19.1260886,12.4956455 19.1260886,11.6779252 18.6217341,11.1735707 C18.5941321,11.1459687 18.5652928,11.1196323 18.5353052,11.0946425 L14.178003,7.46355744 C13.818573,7.16403244 13.3655073,7 12.8976342,7 L12.0938701,7 C11.7833799,7 11.4771537,7.07229018 11.1994429,7.21114562 L8.72730692,8.4472136 C8.04973886,8.78599762 7.62173411,9.47852386 7.62173411,10.236068 L7.62173411,14.3196207 C7.62173411,15.1783392 8.317863,15.8744681 9.1765815,15.8744681 C9.66709246,15.8744681 10.1288425,15.6430067 10.4223515,15.250001 L12.1668202,12.9141747 C12.7702314,12.1062131 13.8807661,11.873855 14.7574819,12.3721284 Z" transform="matrix(-1 0 0 1 26.622 0)"/>
    <path stroke-linecap="round" d="M1 17L1 8M1 17L1 8M23 17L23 8"/>
  </g>
</svg>
