<svg xmlns="http://www.w3.org/2000/svg" width="24" height="24" viewBox="0 0 24 24">
  <g fill="none" fill-rule="evenodd" stroke="#0E3FF2" stroke-width="2">
    <path d="M8,8.73984815 L8,17 L8,17 C8,18.1045695 8.8954305,19 10,19 L17.3308473,19 L17.3308473,19 C18.2974196,19 19.1256814,18.3087523 19.2985871,17.3577709 L20.5713144,10.3577709 L20.5713144,10.3577709 C20.7689058,9.27101818 20.0480981,8.22985158 18.9613454,8.03226018 C18.8432976,8.01079693 18.7235578,8 18.6035746,8 L14,8 L15.6464466,3.06066017 L15.6464466,3.06066017 C15.849314,2.45205792 15.5737957,1.78689785 15,1.5 L15,1.5 L15,1.5 C14.4122932,1.20614658 13.7000127,1.34998522 13.2723931,1.84887469 L8.4814868,7.43826541 L8.4814868,7.43826541 C8.17078432,7.80075162 8,8.26242561 8,8.73984815 Z"/>
    <path stroke-linecap="round" d="M4,18 L4,9"/>
  </g>
</svg>
