<svg xmlns="http://www.w3.org/2000/svg" width="24" height="24" viewBox="0 0 24 24">
  <path fill="none" stroke="#0E3FF2" stroke-linejoin="round" stroke-width="2" d="M9.74292939,13.7429294 C9.19135019,13.9101088 8.60617271,14 8,14 C4.6862915,14 2,11.3137085 2,8 C2,7.07370693 2.20990431,6.19643964 2.58474197,5.4131691 L6.94974747,9.77817459 L9.77817459,6.94974747 L5.4131691,2.58474197 C6.19643964,2.20990431 7.07370693,2 8,2 C11.3137085,2 14,4.6862915 14,8 C14,8.88040772 13.8103765,9.71652648 13.4697429,10.4697429 L20.5857864,17.5857864 L20.5857864,17.5857864 C21.366835,18.366835 21.366835,19.633165 20.5857864,20.4142136 L20.5857864,20.4142136 L19.9142136,21.0857864 L19.9142136,21.0857864 C19.133165,21.866835 17.866835,21.866835 17.0857864,21.0857864 L9.74292939,13.7429294 Z"/>
</svg>
