<svg xmlns="http://www.w3.org/2000/svg" width="24" height="24" viewBox="0 0 24 24">
  <g fill="none" fill-rule="evenodd" stroke="#0E3FF2" stroke-width="2">
    <path d="M14.3994223,8.79920024 L14,8.49918248 L14,3 C14,2.44771525 13.5522847,2 13,2 L11,2 C10.4477153,2 10,2.44771525 10,3 L10,8.49918248 L9.60057766,8.79920024 C8.59959317,9.55106888 8,10.7247698 8,12 C8,13.2752302 8.59959317,14.4489311 9.60057766,15.2007998 L10,15.5008175 L10,21 C10,21.5522847 10.4477153,22 11,22 L13,22 C13.5522847,22 14,21.5522847 14,21 L14,15.5008175 L14.3994223,15.2007998 C15.4004068,14.4489311 16,13.2752302 16,12 C16,10.7247698 15.4004068,9.55106888 14.3994223,8.79920024 Z"/>
    <circle cx="12" cy="12" r="4"/>
  </g>
</svg>
